HIERARCHY
ROOT Hips
{
	OFFSET 0.000000 100.481300 0.000000
	CHANNELS 6 Xposition Yposition Zposition Xrotation Yrotation Zrotation
	JOINT Spine
	{
		OFFSET -0.279200 12.230698 -2.892100
		CHANNELS 3 Xrotation Yrotation Zrotation
		JOINT Spine1
		{
			OFFSET -0.325700 14.269203 -3.374200
			CHANNELS 3 Xrotation Yrotation Zrotation
			JOINT Spine2
			{
				OFFSET -0.372300 16.307602 -0.352600
				CHANNELS 3 Xrotation Yrotation Zrotation
				JOINT Neck
				{
					OFFSET -0.418800 17.814194 8.416900
					CHANNELS 3 Xrotation Yrotation Zrotation
					JOINT Head
					{
						OFFSET 0.000000 7.031097 3.806800
						CHANNELS 3 Xrotation Yrotation Zrotation
						JOINT HeadTop_End
						{
							OFFSET 0.000000 24.646606 12.978600
							CHANNELS 3 Xrotation Yrotation Zrotation
							End Site
							{
								OFFSET 0.000000 27.854965 0.000000
							}
						}
					}
				}
				JOINT LeftShoulder
				{
					OFFSET 16.952999 14.495407 -7.737500
					CHANNELS 3 Xrotation Yrotation Zrotation
					JOINT LeftArm
					{
						OFFSET 9.308998 -2.777710 0.208600
						CHANNELS 3 Xrotation Yrotation Zrotation
						JOINT LeftForeArm
						{
							OFFSET 29.972298 0.000000 0.000000
							CHANNELS 3 Xrotation Yrotation Zrotation
							JOINT LeftHand
							{
								OFFSET 26.026505 0.000000 0.000000
								CHANNELS 3 Xrotation Yrotation Zrotation
								JOINT LeftHandThumb1
								{
									OFFSET 12.240501 -7.147949 9.207150
									CHANNELS 3 Xrotation Yrotation Zrotation
									JOINT LeftHandThumb2
									{
										OFFSET 4.138618 -2.389435 2.389433
										CHANNELS 3 Xrotation Yrotation Zrotation
										JOINT LeftHandThumb3
										{
											OFFSET 2.726913 -1.574387 1.574386
											CHANNELS 3 Xrotation Yrotation Zrotation
											JOINT LeftHandThumb4
											{
												OFFSET 3.941010 -2.275345 2.275342
												CHANNELS 3 Xrotation Yrotation Zrotation
												End Site
												{
													OFFSET -0.005798 5.087799 0.009903
												}
											}
										}
									}
								}
								JOINT LeftHandIndex1
								{
									OFFSET 24.424698 -1.985611 5.953459
									CHANNELS 3 Xrotation Yrotation Zrotation
									JOINT LeftHandIndex2
									{
										OFFSET 6.426697 0.000000 0.000000
										CHANNELS 3 Xrotation Yrotation Zrotation
										JOINT LeftHandIndex3
										{
											OFFSET 5.337898 0.000000 0.000000
											CHANNELS 3 Xrotation Yrotation Zrotation
											JOINT LeftHandIndex4
											{
												OFFSET 4.409401 0.000000 0.000000
												CHANNELS 3 Xrotation Yrotation Zrotation
												End Site
												{
													OFFSET 0.000000 4.409363 0.014373
												}
											}
										}
									}
								}
								JOINT LeftHandMiddle1
								{
									OFFSET 23.810104 0.000000 0.000000
									CHANNELS 3 Xrotation Yrotation Zrotation
									JOINT LeftHandMiddle2
									{
										OFFSET 7.176498 0.000000 0.000000
										CHANNELS 3 Xrotation Yrotation Zrotation
										JOINT LeftHandMiddle3
										{
											OFFSET 6.774902 0.000000 0.000000
											CHANNELS 3 Xrotation Yrotation Zrotation
											JOINT LeftHandMiddle4
											{
												OFFSET 5.403328 0.000000 0.000000
												CHANNELS 3 Xrotation Yrotation Zrotation
												End Site
												{
													OFFSET -0.027702 5.403244 0.017414
												}
											}
										}
									}
								}
								JOINT LeftHandRing1
								{
									OFFSET 22.908401 -0.839279 -6.020567
									CHANNELS 3 Xrotation Yrotation Zrotation
									JOINT LeftHandRing2
									{
										OFFSET 6.337502 0.000000 0.000000
										CHANNELS 3 Xrotation Yrotation Zrotation
										JOINT LeftHandRing3
										{
											OFFSET 5.779297 0.000000 0.000000
											CHANNELS 3 Xrotation Yrotation Zrotation
											JOINT LeftHandRing4
											{
												OFFSET 4.965698 0.000000 0.000000
												CHANNELS 3 Xrotation Yrotation Zrotation
												End Site
												{
													OFFSET 0.000000 4.965668 0.016186
												}
											}
										}
									}
								}
								JOINT LeftHandPinky1
								{
									OFFSET 20.037003 -1.530319 -10.950146
									CHANNELS 3 Xrotation Yrotation Zrotation
									JOINT LeftHandPinky2
									{
										OFFSET 5.254700 0.000000 0.000000
										CHANNELS 3 Xrotation Yrotation Zrotation
										JOINT LeftHandPinky3
										{
											OFFSET 4.810204 0.000000 0.000000
											CHANNELS 3 Xrotation Yrotation Zrotation
											JOINT LeftHandPinky4
											{
												OFFSET 3.647202 0.000000 0.000000
												CHANNELS 3 Xrotation Yrotation Zrotation
												End Site
												{
													OFFSET 0.000000 3.647186 0.011889
												}
											}
										}
									}
								}
							}
						}
					}
				}
				JOINT RightShoulder
				{
					OFFSET -15.141001 14.495407 -7.737500
					CHANNELS 3 Xrotation Yrotation Zrotation
					JOINT RightArm
					{
						OFFSET -9.308998 -2.777710 0.208500
						CHANNELS 3 Xrotation Yrotation Zrotation
						JOINT RightForeArm
						{
							OFFSET -29.972300 0.000000 0.000000
							CHANNELS 3 Xrotation Yrotation Zrotation
							JOINT RightHand
							{
								OFFSET -26.026505 0.000000 0.000000
								CHANNELS 3 Xrotation Yrotation Zrotation
								JOINT RightHandThumb1
								{
									OFFSET -12.240601 -7.148026 9.207092
									CHANNELS 3 Xrotation Yrotation Zrotation
									JOINT RightHandThumb2
									{
										OFFSET -4.138618 -2.389435 2.389433
										CHANNELS 3 Xrotation Yrotation Zrotation
										JOINT RightHandThumb3
										{
											OFFSET -2.726974 -1.574417 1.574421
											CHANNELS 3 Xrotation Yrotation Zrotation
											JOINT RightHandThumb4
											{
												OFFSET -3.941010 -2.275345 2.275343
												CHANNELS 3 Xrotation Yrotation Zrotation
												End Site
												{
													OFFSET 0.005814 5.087799 0.009927
												}
											}
										}
									}
								}
								JOINT RightHandIndex1
								{
									OFFSET -24.424698 -1.985657 5.953444
									CHANNELS 3 Xrotation Yrotation Zrotation
									JOINT RightHandIndex2
									{
										OFFSET -6.426697 0.000000 0.000000
										CHANNELS 3 Xrotation Yrotation Zrotation
										JOINT RightHandIndex3
										{
											OFFSET -5.337898 0.000000 0.000000
											CHANNELS 3 Xrotation Yrotation Zrotation
											JOINT RightHandIndex4
											{
												OFFSET -4.409401 0.000000 0.000000
												CHANNELS 3 Xrotation Yrotation Zrotation
												End Site
												{
													OFFSET 0.000000 4.409363 0.014408
												}
											}
										}
									}
								}
								JOINT RightHandMiddle1
								{
									OFFSET -23.810097 0.000000 0.000000
									CHANNELS 3 Xrotation Yrotation Zrotation
									JOINT RightHandMiddle2
									{
										OFFSET -7.176498 0.000000 0.000000
										CHANNELS 3 Xrotation Yrotation Zrotation
										JOINT RightHandMiddle3
										{
											OFFSET -6.774902 0.000000 0.000000
											CHANNELS 3 Xrotation Yrotation Zrotation
											JOINT RightHandMiddle4
											{
												OFFSET -5.403328 0.000000 0.000000
												CHANNELS 3 Xrotation Yrotation Zrotation
												End Site
												{
													OFFSET 0.027702 5.403244 0.017457
												}
											}
										}
									}
								}
								JOINT RightHandRing1
								{
									OFFSET -22.908302 -0.839325 -6.020576
									CHANNELS 3 Xrotation Yrotation Zrotation
									JOINT RightHandRing2
									{
										OFFSET -6.337502 0.000000 0.000000
										CHANNELS 3 Xrotation Yrotation Zrotation
										JOINT RightHandRing3
										{
											OFFSET -5.779297 0.000000 0.000000
											CHANNELS 3 Xrotation Yrotation Zrotation
											JOINT RightHandRing4
											{
												OFFSET -4.965698 0.000000 0.000000
												CHANNELS 3 Xrotation Yrotation Zrotation
												End Site
												{
													OFFSET 0.000000 4.965668 0.016226
												}
											}
										}
									}
								}
								JOINT RightHandPinky1
								{
									OFFSET -20.037003 -1.530334 -10.950259
									CHANNELS 3 Xrotation Yrotation Zrotation
									JOINT RightHandPinky2
									{
										OFFSET -5.254700 0.000000 0.000000
										CHANNELS 3 Xrotation Yrotation Zrotation
										JOINT RightHandPinky3
										{
											OFFSET -4.810204 0.000000 0.000000
											CHANNELS 3 Xrotation Yrotation Zrotation
											JOINT RightHandPinky4
											{
												OFFSET -3.647202 0.000000 0.000000
												CHANNELS 3 Xrotation Yrotation Zrotation
												End Site
												{
													OFFSET 0.000000 3.647186 0.011917
												}
											}
										}
									}
								}
							}
						}
					}
				}
			}
		}
	}
	JOINT LeftUpLeg
	{
		OFFSET 15.427100 -6.655098 0.678600
		CHANNELS 3 Xrotation Yrotation Zrotation
		JOINT LeftLeg
		{
			OFFSET 4.081073 -39.591068 13.024000
			CHANNELS 3 Xrotation Yrotation Zrotation
			JOINT LeftFoot
			{
				OFFSET -4.081074 -37.707932 -15.979700
				CHANNELS 3 Xrotation Yrotation Zrotation
				JOINT LeftToeBase
				{
					OFFSET 5.346399 -15.068900 20.645000
					CHANNELS 3 Xrotation Yrotation Zrotation
					JOINT LeftToe_End
					{
						OFFSET 2.754700 0.931300 11.300900
						CHANNELS 3 Xrotation Yrotation Zrotation
						End Site
						{
							OFFSET 0.000000 11.669021 0.000000
						}
					}
				}
			}
		}
	}
	JOINT RightUpLeg
	{
		OFFSET -15.569500 -6.655098 0.678600
		CHANNELS 3 Xrotation Yrotation Zrotation
		JOINT RightLeg
		{
			OFFSET -4.081825 -39.591045 13.023800
			CHANNELS 3 Xrotation Yrotation Zrotation
			JOINT RightFoot
			{
				OFFSET 4.081824 -37.707954 -15.979600
				CHANNELS 3 Xrotation Yrotation Zrotation
				JOINT RightToeBase
				{
					OFFSET -5.346400 -15.068900 20.645000
					CHANNELS 3 Xrotation Yrotation Zrotation
					JOINT RightToe_End
					{
						OFFSET -2.754700 0.931300 11.300900
						CHANNELS 3 Xrotation Yrotation Zrotation
						End Site
						{
							OFFSET 0.000000 11.669021 0.000000
						}
					}
				}
			}
		}
	}
}
MOTION
Frames: 4
Frame Time: 0.033333
-1.741398 155.037079 -2.415516 18.800529 2.792100 -0.709601 22.718058 1.407993 0.830295 5.863459 0.315308 0.968330 5.864355 0.292541 0.968325 1.345494 -1.154770 2.907792 -21.429797 -5.799130 -4.339569 -0.000002 0.000000 -0.000000 1.674628 -19.494222 -2.061345 -60.146776 -33.851903 -45.108311 0.000001 -12.101214 -0.000007 27.069232 -7.077381 26.677486 -7.220064 -16.942325 15.004573 8.794622 6.511423 5.542585 2.304284 -2.568606 17.187679 -0.000000 -0.000000 -0.000000 -1.733280 -2.965526 -17.643900 0.673206 2.728561 -27.714375 0.127237 1.215602 -11.950417 0.000001 0.000000 -0.000001 0.645957 4.940521 -30.246748 0.391313 2.107019 -21.039899 0.060840 0.842936 -8.254796 0.000001 -0.000001 0.000000 3.708520 9.022027 -37.868843 0.267217 1.750791 -17.354201 0.169842 1.401838 -13.815819 0.000004 -0.000000 -0.000000 6.648178 15.451636 -40.793756 0.458221 2.273201 -22.790448 0.306738 1.872542 -18.604522 -0.000001 0.000000 -0.000000 0.802412 22.684921 10.587021 -50.396523 37.194960 29.398241 0.000006 5.630809 0.000006 9.454227 2.072787 -30.850817 -29.747356 -9.206955 6.858817 15.739015 -8.312241 6.828492 -15.022796 -11.158767 -16.303419 -0.000000 0.000003 0.000001 -0.797893 -0.539212 19.767276 0.062415 -0.760735 9.380855 0.132045 -1.102267 13.661693 0.000005 -0.000000 0.000000 -0.103203 -3.204653 28.831171 0.439938 -1.977690 25.080222 0.067195 -0.789129 9.734432 -0.000001 0.000000 0.000001 2.018148 -6.407610 37.795268 0.429149 -1.954494 24.765791 0.008461 -0.280931 3.450711 0.000001 -0.000000 0.000000 4.075639 -9.601502 34.188901 0.179331 -1.281226 15.935024 0.167278 -1.238248 15.386932 -0.000000 -0.000000 0.000000 -61.215803 -0.098175 -5.072887 41.742916 -2.168420 3.302700 12.564707 -0.084313 2.816430 5.833249 0.000000 0.000000 0.000001 0.000000 -0.000000 -60.275675 1.948084 -3.835422 41.011625 -0.207370 3.271089 17.421005 -0.197213 9.600909 4.779000 -0.000003 -0.000007 0.000002 -0.000000 -0.000000 
-1.546671 154.626007 -2.178644 18.536286 1.766583 -0.903582 22.793736 1.928858 0.947469 6.055239 0.453777 0.973894 6.057014 0.430075 0.967184 1.456535 -1.209453 2.899580 -21.240273 -5.818251 -4.412913 -0.000001 0.000000 -0.000000 1.633527 -19.925955 -2.541301 -58.116768 -33.908105 -45.686623 0.000000 -12.690011 -0.000002 26.933632 -6.796415 26.722188 -7.220061 -16.942327 15.004573 8.794622 6.511423 5.542585 2.304282 -2.568604 17.187681 -0.000000 0.000001 -0.000001 -1.733277 -2.965525 -17.643903 0.673205 2.728560 -27.714369 0.127240 1.215601 -11.950417 -0.000001 -0.000001 -0.000001 0.645959 4.940520 -30.246745 0.391316 2.107020 -21.039903 0.060836 0.842936 -8.254798 0.000001 0.000000 -0.000001 3.708522 9.022027 -37.868843 0.267216 1.750793 -17.354204 0.169842 1.401838 -13.815818 0.000002 -0.000000 0.000000 6.648179 15.451638 -40.793756 0.458225 2.273201 -22.790453 0.306735 1.872543 -18.604520 0.000003 -0.000001 0.000001 0.630668 22.801543 11.122062 -48.074771 38.047562 29.452698 0.000001 6.608226 -0.000000 12.991024 2.310495 -29.270605 -29.747359 -9.206954 6.858817 15.739013 -8.312245 6.828491 -15.022796 -11.158765 -16.303421 -0.000002 0.000001 0.000002 -0.797893 -0.539210 19.767273 0.062417 -0.760734 9.380858 0.132038 -1.102265 13.661691 -0.000002 -0.000000 0.000001 -0.103203 -3.204652 28.831168 0.439940 -1.977688 25.080224 0.067197 -0.789130 9.734433 0.000001 -0.000000 0.000000 2.018147 -6.407610 37.795268 0.429150 -1.954490 24.765790 0.008467 -0.280930 3.450709 -0.000005 0.000000 0.000000 4.075643 -9.601496 34.188908 0.179329 -1.281226 15.935023 0.167282 -1.238248 15.386936 -0.000004 -0.000000 0.000000 -61.437538 -0.356030 -4.501258 42.634215 -1.861528 3.377774 14.033616 -0.043303 2.261189 6.532264 0.000000 -0.000001 0.000003 -0.000000 0.000000 -60.403802 1.702179 -2.967501 40.917167 0.240610 3.042946 20.086987 0.123529 9.559724 4.579504 -0.000002 0.000001 -0.000001 -0.000000 -0.000001 
-1.386121 153.871201 -1.665087 17.981426 1.327037 -0.616660 22.952716 2.189554 0.949535 6.339256 0.530378 0.965937 6.341560 0.505830 0.955213 1.575729 -1.256457 2.922191 -21.307800 -6.180422 -4.231424 0.000001 0.000000 -0.000000 1.525430 -20.393543 -3.457963 -54.205402 -32.326964 -45.677594 0.000006 -13.575198 0.000014 26.459396 -6.459785 25.765868 -7.220060 -16.942324 15.004570 8.794626 6.511423 5.542586 2.304285 -2.568605 17.187681 0.000001 -0.000001 0.000000 -1.733277 -2.965527 -17.643898 0.673206 2.728559 -27.714374 0.127238 1.215604 -11.950420 0.000001 -0.000001 -0.000000 0.645960 4.940518 -30.246745 0.391313 2.107019 -21.039904 0.060838 0.842936 -8.254797 0.000001 0.000000 0.000001 3.708522 9.022027 -37.868847 0.267214 1.750792 -17.354204 0.169835 1.401838 -13.815816 0.000001 -0.000000 -0.000000 6.648180 15.451638 -40.793759 0.458217 2.273200 -22.790453 0.306741 1.872543 -18.604522 -0.000002 0.000001 -0.000001 0.349041 22.643677 12.282984 -45.430518 36.952778 29.576574 -0.000002 7.834048 0.000010 16.646366 2.354319 -29.261241 -29.747356 -9.206958 6.858817 15.739018 -8.312249 6.828492 -15.022796 -11.158765 -16.303422 0.000001 0.000001 0.000000 -0.797891 -0.539209 19.767271 0.062419 -0.760731 9.380858 0.132047 -1.102264 13.661694 0.000004 0.000000 -0.000001 -0.103202 -3.204653 28.831174 0.439938 -1.977686 25.080222 0.067193 -0.789131 9.734433 -0.000001 -0.000000 -0.000000 2.018149 -6.407611 37.795265 0.429152 -1.954490 24.765790 0.008463 -0.280930 3.450710 0.000004 -0.000000 -0.000000 4.075643 -9.601496 34.188908 0.179331 -1.281224 15.935021 0.167286 -1.238248 15.386934 -0.000002 0.000000 0.000000 -61.443432 -0.374387 -4.710852 43.573793 -1.467015 3.380196 16.602445 -0.004854 2.431531 7.738611 0.000001 -0.000000 0.000002 0.000000 -0.000000 -60.594392 1.541769 -2.874842 41.541409 0.692311 2.761896 24.357233 0.621025 9.540779 4.765955 0.000001 0.000001 -0.000001 0.000000 0.000001 
-1.256280 153.169434 -1.140800 17.371224 1.185222 -0.060700 23.505698 2.299043 0.871439 6.661415 0.565550 0.953317 6.663932 0.539723 0.940540 1.542630 -1.298410 2.971205 -21.803912 -6.607081 -4.117470 0.000002 0.000000 -0.000000 1.377513 -20.553699 -4.488286 -49.345033 -29.451960 -45.173707 0.000004 -14.042603 0.000002 26.852276 -6.070829 23.663044 -7.220058 -16.942324 15.004577 8.794625 6.511423 5.542585 2.304282 -2.568603 17.187683 -0.000001 0.000000 -0.000000 -1.733276 -2.965527 -17.643895 0.673204 2.728561 -27.714375 0.127239 1.215602 -11.950417 0.000001 -0.000000 0.000000 0.645961 4.940520 -30.246745 0.391312 2.107020 -21.039899 0.060836 0.842936 -8.254795 -0.000000 0.000000 0.000000 3.708522 9.022028 -37.868843 0.267221 1.750791 -17.354203 0.169841 1.401838 -13.815817 0.000001 -0.000000 0.000000 6.648180 15.451636 -40.793752 0.458218 2.273202 -22.790454 0.306735 1.872541 -18.604522 -0.000002 0.000000 0.000002 -0.011265 22.208971 14.023989 -42.197554 34.810595 28.718541 0.000001 8.702643 0.000006 19.131078 1.222408 -30.182927 -29.747356 -9.206960 6.858821 15.739022 -8.312246 6.828491 -15.022794 -11.158762 -16.303424 0.000000 0.000001 0.000001 -0.797891 -0.539209 19.767278 0.062416 -0.760732 9.380852 0.132044 -1.102266 13.661695 0.000001 0.000000 -0.000002 -0.103203 -3.204653 28.831174 0.439934 -1.977688 25.080222 0.067196 -0.789131 9.734433 0.000003 -0.000000 -0.000000 2.018149 -6.407609 37.795272 0.429149 -1.954489 24.765793 0.008460 -0.280930 3.450710 -0.000002 0.000000 -0.000000 4.075642 -9.601496 34.188911 0.179329 -1.281225 15.935024 0.167282 -1.238248 15.386932 -0.000000 -0.000000 -0.000000 -61.174043 -0.196904 -5.144605 44.381637 -1.079550 3.175267 18.179383 0.049111 3.098293 8.839714 0.000003 -0.000003 0.000002 0.000000 -0.000001 -60.715027 1.501118 -3.138224 42.451159 1.350086 2.364559 27.613283 1.066321 9.931183 5.386117 -0.000003 -0.000001 0.000000 -0.000000 0.000001 
